<svg aria-hidden="true" xmlns="http://www.w3.org/2000/svg"><defs><symbol id="icon-lantern" viewBox="0 0 24 32"><path fill="#ffbe40" style="fill:var(--color1,#ffbe40)" d="M12.892.047c.023 2.549.023 5.098.023 7.692-.001.504-.002.963-.025 1.423-.245-.002-.468-.003-.69-.027l.002-9.088h.69z"/><path fill="#ffdf40" style="fill:var(--color2,#ffdf40)" d="M12.18.047c.022 3.022.022 6.044.022 9.091.001.025.003.031-.019.029-.246-.004-.469-.005-.693-.028l-.008-1.4c.002-1.231.006-2.462.007-3.693V.07c.223-.022.445-.022.69-.022zM8.331 32.047c-.047-.046-.06-.108-.098-.136a.586.586 0 0 1-.259-.506c.005-1.226.002-2.453.025-3.702.482-.021.942-.018 1.402.006-.003 1.318-.005 2.615-.023 3.919-.113.144-.212.282-.31.42h-.737z"/><path fill="#ffbe40" style="fill:var(--color1,#ffbe40)" d="M16.425 27.681c.001 1.239-.005 2.479.007 3.718.003.296-.217.43-.35.636a6.482 6.482 0 0 1-.711 0c-.126-.147-.242-.281-.363-.437-.004-1.318-.005-2.614.016-3.913.482-.003.941-.003 1.401-.003z"/><path fill="#f25030" style="fill:var(--color3,#f25030)" d="M7.215 24.833c-.301-.063-.603-.119-.901-.191a6.117 6.117 0 0 1-2.441-1.23c-1.171-.951-1.897-2.173-2.24-3.631-.044-.188-.05-.385-.089-.589a21.98 21.98 0 0 1-.003-1.52c.058-.69.258-1.307.523-1.901a6.365 6.365 0 0 1 1.826-2.358 6.342 6.342 0 0 1 2.377-1.208c.311-.085.632-.132.961-.181.066.021.12.035.174.033.508-.012 1.016-.026 1.517-.026-.089.129-.178.241-.251.361-.392.645-.663 1.343-.865 2.067-.439 1.571-.668 3.163-.548 4.803.063.859.188 1.702.394 2.534.265 1.076.603 2.124 1.256 3.03-.577.004-1.133.005-1.688.006z"/><path fill="#d92b2b" style="fill:var(--color4,#d92b2b)" d="M22.88 19.159c-.127.514-.214 1.019-.381 1.497-.38 1.094-1.047 1.993-1.941 2.732a6.37 6.37 0 0 1-2.696 1.316 7.031 7.031 0 0 1-.668.107c-.577 0-1.125.005-1.67-.005.504-.755.831-1.572 1.079-2.423.345-1.183.564-2.392.57-3.622a16.028 16.028 0 0 0-.191-2.513 13.617 13.617 0 0 0-.571-2.33c-.225-.657-.588-1.267-.868-1.9.49.012.958.029 1.426.039.073.002.146-.03.236-.039.046.019.074.037.103.039.649.06 1.263.245 1.85.519.89.416 1.655.993 2.277 1.76.46.567.849 1.174 1.068 1.873.149.476.25.968.372 1.452.002.492.005.984.003 1.498z"/><path fill="#593434" style="fill:var(--color5,#593434)" d="M15.522 24.822c.548-.005 1.096-.011 1.655-.003.011.722.01 1.43.01 2.138 0 .467-.255.724-.741.723-.48.001-.94.001-1.421.004-.228.001-.434-.002-.661-.004h-.86c-.434 0-.845-.001-1.279-.027-.021-.956-.021-1.886-.021-2.82-.001-.003-.004-.008.018-.006 1.115-.001 2.208-.003 3.3-.006z"/><path fill="#804040" style="fill:var(--color6,#804040)" d="m12.204 24.837-.002 2.813c-.618.024-1.236.027-1.876.031h-.243c-.226 0-.433 0-.661.003-.482.001-.942-.002-1.424-.003-.552-.007-.783-.241-.783-.772l-.001-2.053a42.95 42.95 0 0 1 1.709-.026l3.279.007z"/><path fill="#593434" style="fill:var(--color5,#593434)" d="m12.89 9.163 3.643.001c.363 0 .654.288.654.649l.001 2.176a.462.462 0 0 1-.218.068c-.468-.01-.936-.027-1.447-.042-1.137.001-2.23.002-3.321 0 .002-.002.003-.008.002-.03l.002-2.815-.004-.009c.221-.001.444.001.689.002z"/><path fill="#804040" style="fill:var(--color6,#804040)" d="M12.183 9.167a60.23 60.23 0 0 1-.002 2.819c-1.1.026-2.178.029-3.256.031-.508.013-1.016.028-1.524.039a.54.54 0 0 1-.174-.033c-.012-.749-.011-1.483-.01-2.218 0-.366.282-.643.652-.643l3.599-.001c.246 0 .469.002.715.005z"/><path fill="#f73" style="fill:var(--color7,#f73)" d="M8.917 12.031c1.086-.016 2.164-.019 3.265-.023.022-.002.021.004.02.028L12.2 24.825l.004.008c-1.078.001-2.156-.002-3.256-.006-.697-.907-1.035-1.955-1.3-3.03a15.306 15.306 0 0 1-.394-2.534c-.121-1.64.108-3.232.548-4.803.202-.724.473-1.422.865-2.067.073-.121.162-.232.251-.361z"/><path fill="#f25030" style="fill:var(--color3,#f25030)" d="M12.222 24.828c-.022-4.257-.021-8.512-.022-12.789 1.092-.023 2.185-.023 3.3-.021.324.634.687 1.243.912 1.9.259.754.449 1.542.571 2.33.128.828.195 1.675.191 2.513-.006 1.23-.225 2.439-.57 3.622-.248.851-.576 1.668-1.079 2.423a212.35 212.35 0 0 1-3.303.022z"/></symbol></defs></svg>