<svg aria-hidden="true" version="1.1" xmlns="http://www.w3.org/2000/svg" xmlns:xlink="http://www.w3.org/1999/xlink">
  <defs>
    <symbol id="icon-lantern" viewBox="0 0 24 32">
      <path fill="#ffbe40" style="fill: var(--color1, #ffbe40)"
        d="M12.892 0.047c0.023 2.549 0.023 5.098 0.023 7.692-0.001 0.504-0.002 0.963-0.025 1.423-0.245-0.002-0.468-0.003-0.69-0.027 0.001-3.044 0.002-6.066 0.002-9.088 0.223 0 0.445 0 0.69 0z">
      </path>
      <path fill="#ffdf40" style="fill: var(--color2, #ffdf40)"
        d="M12.18 0.047c0.022 3.022 0.022 6.044 0.022 9.091 0.001 0.025 0.003 0.031-0.019 0.029-0.246-0.004-0.469-0.005-0.693-0.028-0.003-0.481-0.005-0.941-0.008-1.4 0.002-1.231 0.006-2.462 0.007-3.693 0.001-1.318 0-2.636 0-3.976 0.223-0.022 0.445-0.022 0.69-0.022z">
      </path>
      <path fill="#ffdf40" style="fill: var(--color2, #ffdf40)"
        d="M8.331 32.047c-0.047-0.046-0.060-0.108-0.098-0.136-0.172-0.128-0.26-0.286-0.259-0.506 0.005-1.226 0.002-2.453 0.025-3.702 0.482-0.021 0.942-0.018 1.402 0.006-0.003 1.318-0.005 2.615-0.023 3.919-0.113 0.144-0.212 0.282-0.31 0.42-0.238 0-0.477 0-0.737 0z">
      </path>
      <path fill="#ffbe40" style="fill: var(--color1, #ffbe40)"
        d="M16.425 27.681c0.001 1.239-0.005 2.479 0.007 3.718 0.003 0.296-0.217 0.43-0.35 0.636-0.225 0.013-0.463 0.013-0.711-0-0.126-0.147-0.242-0.281-0.363-0.437-0.004-1.318-0.005-2.614 0.016-3.913 0.482-0.003 0.941-0.003 1.401-0.003z">
      </path>
      <path fill="#f25030" style="fill: var(--color3, #f25030)"
        d="M7.215 24.833c-0.301-0.063-0.603-0.119-0.901-0.191-0.909-0.22-1.716-0.641-2.441-1.23-1.171-0.951-1.897-2.173-2.24-3.631-0.044-0.188-0.050-0.385-0.089-0.589-0.018-0.503-0.020-0.995-0.003-1.52 0.058-0.69 0.258-1.307 0.523-1.901 0.416-0.933 1.034-1.711 1.826-2.358 0.707-0.577 1.503-0.97 2.377-1.208 0.311-0.085 0.632-0.132 0.961-0.181 0.066 0.021 0.12 0.035 0.174 0.033 0.508-0.012 1.016-0.026 1.517-0.026-0.089 0.129-0.178 0.241-0.251 0.361-0.392 0.645-0.663 1.343-0.865 2.067-0.439 1.571-0.668 3.163-0.548 4.803 0.063 0.859 0.188 1.702 0.394 2.534 0.265 1.076 0.603 2.124 1.256 3.030-0.577 0.004-1.133 0.005-1.688 0.006z">
      </path>
      <path fill="#d92b2b" style="fill: var(--color4, #d92b2b)"
        d="M22.88 19.159c-0.127 0.514-0.214 1.019-0.381 1.497-0.38 1.094-1.047 1.993-1.941 2.732-0.795 0.658-1.695 1.089-2.696 1.316-0.211 0.048-0.426 0.076-0.668 0.107-0.577-0-1.125 0.005-1.67-0.005 0.504-0.755 0.831-1.572 1.079-2.423 0.345-1.183 0.564-2.392 0.57-3.622 0.004-0.838-0.063-1.684-0.191-2.513-0.122-0.788-0.312-1.576-0.571-2.33-0.225-0.657-0.588-1.267-0.868-1.9 0.49 0.012 0.958 0.029 1.426 0.039 0.073 0.002 0.146-0.030 0.236-0.039 0.046 0.019 0.074 0.037 0.103 0.039 0.649 0.060 1.263 0.245 1.85 0.519 0.89 0.416 1.655 0.993 2.277 1.76 0.46 0.567 0.849 1.174 1.068 1.873 0.149 0.476 0.25 0.968 0.372 1.452 0.002 0.492 0.005 0.984 0.003 1.498z">
      </path>
      <path fill="#593434" style="fill: var(--color5, #593434)"
        d="M15.522 24.822c0.548-0.005 1.096-0.011 1.655-0.003 0.011 0.722 0.010 1.43 0.010 2.138-0 0.467-0.255 0.724-0.741 0.723-0.48 0.001-0.94 0.001-1.421 0.004-0.228 0.001-0.434-0.002-0.661-0.004-0.294 0-0.566-0-0.86 0-0.434-0-0.845-0.001-1.279-0.027-0.021-0.956-0.021-1.886-0.021-2.82-0.001-0.003-0.004-0.008 0.018-0.006 1.115-0.001 2.208-0.003 3.3-0.006z">
      </path>
      <path fill="#804040" style="fill: var(--color6, #804040)"
        d="M12.204 24.837c-0.001 0.931-0.001 1.861-0.002 2.813-0.618 0.024-1.236 0.027-1.876 0.031-0.089 0-0.156-0-0.243 0-0.226 0-0.433 0-0.661 0.003-0.482 0.001-0.942-0.002-1.424-0.003-0.552-0.007-0.783-0.241-0.783-0.772-0-0.677-0-1.354-0.001-2.053 0.555-0.023 1.11-0.025 1.709-0.026 1.123 0.002 2.201 0.005 3.279 0.007z">
      </path>
      <path fill="#593434" style="fill: var(--color5, #593434)"
        d="M12.89 9.163c1.229-0 2.436 0 3.643 0.001 0.363 0 0.654 0.288 0.654 0.649-0 0.718 0 1.436 0.001 2.176-0.072 0.038-0.146 0.070-0.218 0.068-0.468-0.010-0.936-0.027-1.447-0.042-1.137 0.001-2.23 0.002-3.321-0 0.002-0.002 0.003-0.008 0.002-0.030-0-0.953 0.001-1.884 0.002-2.815 0 0-0.003-0.006-0.004-0.009 0.221-0.001 0.444 0.001 0.689 0.002z">
      </path>
      <path fill="#804040" style="fill: var(--color6, #804040)"
        d="M12.183 9.167c0.021 0.933 0.021 1.864-0.002 2.819-1.1 0.026-2.178 0.029-3.256 0.031-0.508 0.013-1.016 0.028-1.524 0.039-0.054 0.001-0.108-0.012-0.174-0.033-0.012-0.749-0.011-1.483-0.010-2.218 0-0.366 0.282-0.643 0.652-0.643 1.192-0 2.384-0 3.599-0.001 0.246 0 0.469 0.002 0.715 0.005z">
      </path>
      <path fill="#f73" style="fill: var(--color7, #f73)"
        d="M8.917 12.031c1.086-0.016 2.164-0.019 3.265-0.023 0.022-0.002 0.021 0.004 0.020 0.028-0.001 4.279-0.002 8.534-0.002 12.789 0 0 0.003 0.005 0.004 0.008-1.078 0.001-2.156-0.002-3.256-0.006-0.697-0.907-1.035-1.955-1.3-3.030-0.205-0.832-0.33-1.675-0.394-2.534-0.121-1.64 0.108-3.232 0.548-4.803 0.202-0.724 0.473-1.422 0.865-2.067 0.073-0.121 0.162-0.232 0.251-0.361z">
      </path>
      <path fill="#f25030" style="fill: var(--color3, #f25030)"
        d="M12.222 24.828c-0.022-4.257-0.021-8.512-0.022-12.789 1.092-0.023 2.185-0.023 3.3-0.021 0.324 0.634 0.687 1.243 0.912 1.9 0.259 0.754 0.449 1.542 0.571 2.33 0.128 0.828 0.195 1.675 0.191 2.513-0.006 1.23-0.225 2.439-0.57 3.622-0.248 0.851-0.576 1.668-1.079 2.423-1.096 0.018-2.188 0.021-3.303 0.022z">
      </path>
    </symbol>
  </defs>
</svg>
